<svg version="1.1" xmlns="http://www.w3.org/2000/svg" fill="#a4c330"
    viewBox="0 0 220 220" preserveAspectRatio="xMidYMid meet">
    <path d="M0 0 C4.70304352 3.41442601 7.3312107 6.74363209 9.1875 12.3125 C9.41938622 15.03581488 9.31843368 17.56289269 9.1875 20.3125 C8.5275 20.9725 7.8675 21.6325 7.1875 22.3125 C3.5625 21.9375 3.5625 21.9375 0.1875 21.3125 C-0.03164062 20.55324219 -0.25078125 19.79398438 -0.4765625 19.01171875 C-2.36769003 12.77383133 -2.36769003 12.77383133 -6.625 8.0625 C-10.53821198 7.14174424 -12.94261855 7.18671631 -16.8125 8.3125 C-19.93155047 10.88910691 -21.5306368 12.4669104 -22.8125 16.3125 C-22.90601978 18.03854986 -22.9414756 19.76800208 -22.94380188 21.49658203 C-22.94781006 22.57023514 -22.95181824 23.64388824 -22.95594788 24.75007629 C-22.95541916 25.92825424 -22.95489044 27.10643219 -22.9543457 28.3203125 C-22.95955734 30.18178169 -22.95955734 30.18178169 -22.96487427 32.08085632 C-22.97223706 34.78183513 -22.97790774 37.48276461 -22.98116493 40.18374634 C-22.98708455 44.46327737 -23.00363655 48.74272563 -23.02250671 53.0222168 C-23.02884435 54.4890594 -23.03516997 55.95590205 -23.04148388 57.42274475 C-23.04464969 58.15744555 -23.0478155 58.89214634 -23.05107725 59.64911079 C-23.09308663 69.6102972 -23.12609241 79.57144582 -23.13842773 89.53271484 C-23.14683553 96.25334092 -23.16942979 102.97376255 -23.2077834 109.69428635 C-23.22746025 113.2465703 -23.23997695 116.79854922 -23.23494911 120.35089111 C-23.22939468 124.32396991 -23.25482944 128.29653834 -23.2824707 132.26953125 C-23.27256859 134.0125074 -23.27256859 134.0125074 -23.26246643 135.79069519 C-23.39394507 147.35088564 -26.59277921 156.97884249 -34.8125 165.3125 C-43.70174649 172.84063314 -53.7394364 176.08419308 -65.3203125 175.69140625 C-76.02649733 174.52977322 -84.34703269 170.29335129 -91.59375 162.36328125 C-97.04842532 155.5583064 -100.50662193 147.185189 -99.8125 138.3125 C-98.68974304 136.19732666 -98.68974304 136.19732666 -96.8125 134.3125 C-94.02204895 133.83148193 -94.02204895 133.83148193 -90.59692383 133.85839844 C-89.3158223 133.85870056 -88.03472076 133.85900269 -86.71479797 133.85931396 C-85.31636943 133.87974061 -83.91794721 133.9006046 -82.51953125 133.921875 C-81.08893117 133.92933641 -79.65832086 133.93502982 -78.22770691 133.93902588 C-74.46436285 133.95429043 -70.70163742 133.99357824 -66.9385376 134.0378418 C-63.09778207 134.07877743 -59.25692647 134.09703318 -55.41601562 134.1171875 C-47.88122855 134.16007263 -40.34695099 134.22833272 -32.8125 134.3125 C-32.81710896 133.68596527 -32.82171793 133.05943054 -32.82646656 132.41390991 C-32.93703278 117.14778858 -33.01969854 101.88179062 -33.07156086 86.6153717 C-33.09730973 79.23252963 -33.1323961 71.84995533 -33.18969727 64.46728516 C-33.23963467 58.03027537 -33.27181514 51.59345956 -33.28294247 45.15626144 C-33.28944398 41.7497429 -33.30465322 38.34377916 -33.34115028 34.93743896 C-33.37749069 31.12853208 -33.38244289 27.32077134 -33.38012695 23.51171875 C-33.39810333 22.39034012 -33.41607971 21.26896149 -33.43460083 20.11360168 C-33.38001163 11.80656553 -31.32772548 6.92537063 -25.5625 1 C-16.9779396 -4.26779843 -8.75793566 -5.44683396 0 0 Z M-89.8125 143.3125 C-86.58949142 152.98152573 -83.95243046 158.31743127 -75.0625 163.25 C-67.11691192 166.8014371 -59.38378636 167.28519708 -51.16015625 164.37890625 C-43.65890664 160.97151666 -38.51122868 155.67156225 -34.8125 148.3125 C-34.4825 146.6625 -34.1525 145.0125 -33.8125 143.3125 C-52.2925 143.3125 -70.7725 143.3125 -89.8125 143.3125 Z " transform="translate(155.8125,22.6875)"/>
    <path d="M0 0 C1.21171875 -0.02900391 2.4234375 -0.05800781 3.671875 -0.08789062 C10.91183918 -0.13915399 15.75407823 0.34197401 21.875 4.3125 C25.33898378 7.99298276 25.42880878 12.00012038 25.3125 16.86328125 C24.60830389 20.805522 22.73640033 22.59416969 19.875 25.3125 C20.82375 26.055 21.7725 26.7975 22.75 27.5625 C26.96644444 31.13255556 26.96644444 31.13255556 27.875 34.3125 C28.32834816 39.93401717 28.06433562 43.47350802 24.875 48.3125 C20.26752657 53.19100128 14.53241306 54.0658049 8.05175781 54.50292969 C5.05268745 54.57947209 2.06239601 54.58562059 -0.9375 54.5625 C-1.96037109 54.57023437 -2.98324219 54.57796875 -4.03710938 54.5859375 C-5.02130859 54.58335937 -6.00550781 54.58078125 -7.01953125 54.578125 C-7.90487549 54.57586914 -8.79021973 54.57361328 -9.70239258 54.57128906 C-12.32903066 54.29070493 -13.93491939 53.78339016 -16.125 52.3125 C-17.04933578 49.53949267 -17.25595882 47.85944362 -17.27026367 44.99633789 C-17.27664352 44.12856216 -17.28302338 43.26078644 -17.28959656 42.36671448 C-17.29070938 41.43230026 -17.2918222 40.49788605 -17.29296875 39.53515625 C-17.29629715 38.57226181 -17.29962555 37.60936737 -17.30305481 36.61729431 C-17.308118 34.58056109 -17.31046332 32.54381958 -17.31030273 30.50708008 C-17.31248902 27.39064885 -17.33065067 24.2745717 -17.34960938 21.15820312 C-17.35254344 19.17968871 -17.35452815 17.20117262 -17.35546875 15.22265625 C-17.36265427 14.29026627 -17.36983978 13.35787628 -17.37724304 12.39723206 C-17.37416641 11.52630417 -17.37108978 10.65537628 -17.36791992 9.75805664 C-17.36934494 8.99433243 -17.37076996 8.23060822 -17.37223816 7.44374084 C-17.08817375 4.99505063 -16.42318099 3.40005243 -15.125 1.3125 C-10.72908888 -0.88545556 -4.82686695 0.03778862 0 0 Z M-5.125 9.3125 C-5.125 13.6025 -5.125 17.8925 -5.125 22.3125 C-2.3096875 22.374375 -2.3096875 22.374375 0.5625 22.4375 C1.61824219 22.46070313 2.67398438 22.48390625 3.76171875 22.5078125 C8.04563107 22.23906016 10.82767383 21.35982617 13.875 18.3125 C14.45845476 15.35503508 14.45845476 15.35503508 13.875 12.3125 C9.87260698 9.06527547 6.6002871 8.98375363 1.5625 9.125 C0.30824219 9.15207031 -0.94601563 9.17914063 -2.23828125 9.20703125 C-3.66720703 9.25923828 -3.66720703 9.25923828 -5.125 9.3125 Z M-5.125 30.3125 C-5.125 35.2625 -5.125 40.2125 -5.125 45.3125 C5.34724828 45.91547808 5.34724828 45.91547808 14.875 42.3125 C16.25642556 41.14872098 16.25642556 41.14872098 16.125 37.9375 C16.18508684 34.44170285 16.18508684 34.44170285 14.625 32.4375 C9.0002699 28.82160208 1.20290066 30.25390833 -5.125 30.3125 Z " transform="translate(88.125,93.6875)"/>
</svg>
