<svg version="1.1" id="Layer_1" xmlns="http://www.w3.org/2000/svg" xmlns:xlink="http://www.w3.org/1999/xlink" x="0px" y="0px"
	 width="100%" viewBox="0 0 200 200" enable-background="new 0 0 200 200" xml:space="preserve">
<path fill="#000000" opacity="1.000000" stroke="none" 
	d="
M119.000000,201.000000 
	C79.357826,201.000000 40.215649,201.000000 1.036737,201.000000 
	C1.036737,134.399536 1.036737,67.799034 1.036737,1.099268 
	C67.558670,1.099268 134.117538,1.099268 200.838196,1.099268 
	C200.838196,67.666351 200.838196,134.333145 200.838196,201.000000 
	C173.799316,201.000000 146.649658,201.000000 119.000000,201.000000 
M95.500000,180.999954 
	C120.990280,181.000015 146.480560,181.002350 171.970840,180.998581 
	C178.458389,180.997620 180.997147,178.536148 180.997742,172.224670 
	C181.002182,124.742943 181.002182,77.261215 180.997757,29.779490 
	C180.997162,23.464172 178.460602,21.001787 171.974960,21.001398 
	C124.659836,20.998556 77.344704,20.998564 30.029579,21.001389 
	C23.542313,21.001776 21.002926,23.464230 21.002329,29.775085 
	C20.997837,77.256813 20.997849,124.738533 21.002243,172.220261 
	C21.002829,178.535782 23.539091,180.997208 30.024813,180.998474 
	C51.516541,181.002686 73.008270,181.000000 95.500000,180.999954 
z"/>
<path fill="#1976D2" opacity="1.000000" stroke="none" 
	d="
M95.000000,180.999954 
	C73.008270,181.000000 51.516541,181.002686 30.024813,180.998474 
	C23.539091,180.997208 21.002829,178.535782 21.002243,172.220261 
	C20.997849,124.738533 20.997837,77.256813 21.002329,29.775085 
	C21.002926,23.464230 23.542313,21.001776 30.029579,21.001389 
	C77.344704,20.998564 124.659836,20.998556 171.974960,21.001398 
	C178.460602,21.001787 180.997162,23.464172 180.997757,29.779490 
	C181.002182,77.261215 181.002182,124.742943 180.997742,172.224670 
	C180.997147,178.536148 178.458389,180.997620 171.970840,180.998581 
	C146.480560,181.002350 120.990280,181.000015 95.000000,180.999954 
M102.500000,60.999912 
	C84.336823,60.999981 66.173553,60.966675 48.010502,61.014896 
	C39.558735,61.037334 36.108040,63.892235 36.064892,71.780495 
	C35.907207,100.607384 35.700790,129.440842 36.196255,158.260071 
	C36.335571,166.363663 39.287094,168.100555 46.069092,168.072556 
	C83.394554,167.918427 120.721001,168.002029 158.047104,167.996307 
	C165.469299,167.995163 167.995895,165.409958 167.997101,157.837067 
	C168.001617,129.509216 167.999069,101.181374 167.998871,72.853523 
	C167.998810,63.664001 165.322266,61.008514 155.989838,61.002937 
	C138.493225,60.992477 120.996613,60.999916 102.500000,60.999912 
z"/>
<path fill="#000000" opacity="1.000000" stroke="none" 
	d="
M103.000000,60.999912 
	C120.996613,60.999916 138.493225,60.992477 155.989838,61.002937 
	C165.322266,61.008514 167.998810,63.664001 167.998871,72.853523 
	C167.999069,101.181374 168.001617,129.509216 167.997101,157.837067 
	C167.995895,165.409958 165.469299,167.995163 158.047104,167.996307 
	C120.721001,168.002029 83.394554,167.918427 46.069092,168.072556 
	C39.287094,168.100555 36.335571,166.363663 36.196255,158.260071 
	C35.700790,129.440842 35.907207,100.607384 36.064892,71.780495 
	C36.108040,63.892235 39.558735,61.037334 48.010502,61.014896 
	C66.173553,60.966675 84.336823,60.999981 103.000000,60.999912 
M148.119400,129.583923 
	C146.292984,126.771614 144.912125,123.491310 142.549622,121.242111 
	C137.241547,116.188599 126.723518,117.323051 122.005020,122.998932 
	C116.354408,129.796051 116.962204,140.180542 123.295906,145.054474 
	C129.284760,149.663040 135.590210,150.479782 141.364716,146.812057 
	C147.377274,142.993118 149.953659,137.357727 148.119400,129.583923 
z"/>
<path fill="#61DAFB" opacity="1.000000" stroke="none" 
	d="
M148.406006,129.883148 
	C149.953659,137.357727 147.377274,142.993118 141.364716,146.812057 
	C135.590210,150.479782 129.284760,149.663040 123.295906,145.054474 
	C116.962204,140.180542 116.354408,129.796051 122.005020,122.998932 
	C126.723518,117.323051 137.241547,116.188599 142.549622,121.242111 
	C144.912125,123.491310 146.292984,126.771614 148.406006,129.883148 
z"/>
</svg>