<?xml version="1.0" encoding="UTF-8"?>
<svg version="1.1" xmlns="http://www.w3.org/2000/svg" width="280" height="280">
<path d="M0 0 C1.45569553 -0.00543915 2.91138555 -0.01257172 4.36706543 -0.02124023 C8.27215941 -0.03926412 12.17682426 -0.0324942 16.08192444 -0.01972389 C20.19883245 -0.00948615 24.3157075 -0.01901908 28.43261719 -0.02526855 C35.3418629 -0.03251399 42.25093673 -0.02303942 49.16015625 -0.00390625 C57.10999201 0.01785655 65.05941719 0.01080296 73.00924301 -0.01121187 C79.87600046 -0.02945502 86.74263544 -0.03188096 93.60940933 -0.0214572 C97.69259606 -0.0152709 101.77559081 -0.01425051 105.85876465 -0.02760315 C109.70043331 -0.03929206 113.54158071 -0.03090277 117.38319397 -0.00802612 C118.7798222 -0.00280768 120.17649552 -0.00413239 121.57310486 -0.01307678 C140.42011269 -0.12250585 157.33175677 5.46070598 171.77734375 17.81835938 C173.85975273 19.66619052 173.85975273 19.66619052 176.765625 21.51757812 C176.765625 22.17757813 176.765625 22.83757813 176.765625 23.51757812 C177.425625 23.51757812 178.085625 23.51757812 178.765625 23.51757812 C193.60407678 39.84801317 200.42371434 58.81203716 200.28320312 80.75195312 C200.28864227 82.20764866 200.29577484 83.66333867 200.30444336 85.11901855 C200.32246725 89.02411254 200.31569733 92.92877739 200.30292702 96.83387756 C200.29268928 100.95078557 200.30222221 105.06766062 200.30847168 109.18457031 C200.31571711 116.09381603 200.30624254 123.00288985 200.28710938 129.91210938 C200.26534657 137.86194513 200.27240016 145.81137031 200.294415 153.76119614 C200.31265815 160.62795359 200.31508408 167.49458856 200.30466032 174.36136246 C200.29847403 178.44454918 200.29745363 182.52754394 200.31080627 186.61071777 C200.32249519 190.45238643 200.3141059 194.29353383 200.29122925 198.13514709 C200.2860108 199.53177532 200.28733551 200.92844865 200.29627991 202.32505798 C200.40570898 221.17206581 194.82249715 238.0837099 182.46484375 252.52929688 C180.61701261 254.61170585 180.61701261 254.61170585 178.765625 257.51757812 C178.105625 257.51757812 177.445625 257.51757812 176.765625 257.51757812 C176.765625 258.17757813 176.765625 258.83757812 176.765625 259.51757812 C160.43518995 274.3560299 141.47116597 281.17566746 119.53125 281.03515625 C118.07555447 281.0405954 116.61986445 281.04772797 115.16418457 281.05639648 C111.25909059 281.07442037 107.35442574 281.06765045 103.44932556 281.05488014 C99.33241755 281.0446424 95.2155425 281.05417533 91.09863281 281.0604248 C84.1893871 281.06767024 77.28031327 281.05819567 70.37109375 281.0390625 C62.42125799 281.0172997 54.47183281 281.02435329 46.52200699 281.04636812 C39.65524954 281.06461127 32.78861456 281.06703721 25.92184067 281.05661345 C21.83865394 281.05042715 17.75565919 281.04940676 13.67248535 281.0627594 C9.83081669 281.07444831 5.98966929 281.06605902 2.14805603 281.04318237 C0.7514278 281.03796393 -0.64524552 281.03928864 -2.04185486 281.04823303 C-20.88886269 281.1576621 -37.80050677 275.57445027 -52.24609375 263.21679688 C-54.32850273 261.36896573 -54.32850273 261.36896573 -57.234375 259.51757812 C-57.234375 258.85757812 -57.234375 258.19757813 -57.234375 257.51757812 C-57.894375 257.51757812 -58.554375 257.51757812 -59.234375 257.51757812 C-74.07282678 241.18714308 -80.89246434 222.22311909 -80.75195312 200.28320312 C-80.75739227 198.82750759 -80.76452484 197.37181758 -80.77319336 195.9161377 C-80.79121725 192.01104371 -80.78444733 188.10637886 -80.77167702 184.20127869 C-80.76143928 180.08437068 -80.77097221 175.96749563 -80.77722168 171.85058594 C-80.78446711 164.94134022 -80.77499254 158.0322664 -80.75585938 151.12304688 C-80.73409657 143.17321112 -80.74115016 135.22378594 -80.763165 127.27396011 C-80.78140815 120.40720266 -80.78383408 113.54056769 -80.77341032 106.67379379 C-80.76722403 102.59060707 -80.76620363 98.50761231 -80.77955627 94.42443848 C-80.79124519 90.58276982 -80.7828559 86.74162242 -80.75997925 82.90000916 C-80.7547608 81.50338093 -80.75608551 80.1067076 -80.76502991 78.71009827 C-80.87445898 59.86309044 -75.29124715 42.95144635 -62.93359375 28.50585938 C-61.08576261 26.4234504 -61.08576261 26.4234504 -59.234375 23.51757812 C-58.574375 23.51757812 -57.914375 23.51757812 -57.234375 23.51757812 C-57.234375 22.85757812 -57.234375 22.19757812 -57.234375 21.51757812 C-40.90393995 6.67912635 -21.93991597 -0.14051121 0 0 Z " fill="#6360EC" transform="translate(80.234375,-0.517578125)"/>
<path d="M0 0 C16.5 0 33 0 50 0 C50.09062439 15.38697579 50.16416935 30.77381748 50.20724869 46.16098881 C50.22779127 53.30704938 50.25575079 60.4529312 50.30175781 67.59887695 C50.34188234 73.83415863 50.367493 80.06931074 50.37635398 86.30471796 C50.38152596 89.60017507 50.39566954 92.89517968 50.42292023 96.19053841 C50.63317444 122.68690153 50.63317444 122.68690153 46 135 C45.71962891 135.74865326 45.43925781 136.49730652 45.15039062 137.26864624 C42.10785242 144.60419178 37.84060068 151.00165539 32.69921875 157.01171875 C30.85138761 159.09412773 30.85138761 159.09412773 29 162 C28.34 162 27.68 162 27 162 C27 162.66 27 163.32 27 164 C11.81638238 177.79641003 -5.48974578 185 -26 185 C-26 167.51 -26 150.02 -26 132 C-21.71 129.69 -17.42 127.38 -13 125 C-6.03645223 119.233312 -1.37308643 112.07069214 0 103 C0.93043687 92.07880659 -1.47337369 84.42232679 -8.234375 75.8515625 C-13.29282599 70.54690372 -19.32270076 67.86169967 -26 65 C-26 51.8 -26 38.6 -26 25 C-21.38 22.69 -16.76 20.38 -12 18 C-5.91243662 12.2870559 -3.91119651 7.82239302 0 0 Z " fill="#7157EC" transform="translate(230,95)"/>
<path d="M0 0 C6.44248086 5.4557946 11.41502653 11.95601708 14.1015625 20.015625 C14.71546611 28.97257929 15.13361866 37.21750071 10.1015625 45.015625 C9.44800781 46.05783203 9.44800781 46.05783203 8.78125 47.12109375 C4.48161806 53.38257961 -1.44986261 58.88746075 -8.8984375 61.015625 C-9.8884375 61.015625 -10.8784375 61.015625 -11.8984375 61.015625 C-11.8984375 78.835625 -11.8984375 96.655625 -11.8984375 115.015625 C-17.5290625 115.098125 -23.1596875 115.180625 -28.9609375 115.265625 C-31.5752771 115.32024902 -31.5752771 115.32024902 -34.24243164 115.37597656 C-53.37461759 115.60835669 -70.15140588 110.34039659 -84.91015625 97.71484375 C-86.99256523 95.86701261 -86.99256523 95.86701261 -89.8984375 94.015625 C-89.8984375 93.355625 -89.8984375 92.695625 -89.8984375 92.015625 C-90.5584375 92.015625 -91.2184375 92.015625 -91.8984375 92.015625 C-108.01928341 74.27385308 -113.64996271 54.57647345 -113.1484375 31.078125 C-113.12830857 29.41213125 -113.11006928 27.74611355 -113.09375 26.08007812 C-113.05033611 22.05798579 -112.98167759 18.03708204 -112.8984375 14.015625 C-111.88485672 14.02348022 -111.88485672 14.02348022 -110.85079956 14.03149414 C-103.80982735 14.07822544 -96.77048681 14.06914623 -89.72949219 14.02783203 C-87.10286981 14.01972717 -84.47616355 14.02579527 -81.84960938 14.04638672 C-78.07049831 14.07354372 -74.29462116 14.04952945 -70.515625 14.015625 C-69.34353485 14.0350415 -68.1714447 14.05445801 -66.96383667 14.07446289 C-60.9569951 14.09700685 -60.9569951 14.09700685 -55.90289307 11.28222656 C-54.29996161 9.21227959 -54.29996161 9.21227959 -53.09695435 7.04785156 C-48.87394818 -0.11275308 -40.70834476 -3.71440591 -33.1484375 -6.234375 C-21.42511681 -8.72044884 -9.97086199 -6.82641226 0 0 Z " fill="#FCFDFE" transform="translate(112.8984375,164.984375)"/>
<path d="M0 0 C7.129171 4.97953547 12.04067415 10.41108494 14.796875 18.6796875 C31.626875 18.6796875 48.456875 18.6796875 65.796875 18.6796875 C65.796875 24.9496875 65.796875 31.2196875 65.796875 37.6796875 C49.296875 38.0096875 32.796875 38.3396875 15.796875 38.6796875 C13.816875 42.6396875 11.836875 46.5996875 9.796875 50.6796875 C4.39962527 56.31160026 -0.735704 60.28000887 -8.203125 62.6796875 C-8.863125 62.6796875 -9.523125 62.6796875 -10.203125 62.6796875 C-10.203125 75.8796875 -10.203125 89.0796875 -10.203125 102.6796875 C-7.233125 103.6696875 -4.263125 104.6596875 -1.203125 105.6796875 C6.84771597 110.23699537 12.15323946 117.39241641 16.234375 125.5546875 C17.92120988 134.9259924 17.4083548 144.48054305 12.54296875 152.83203125 C6.57946128 161.29793695 0.30723264 165.45286188 -9.203125 169.6796875 C-9.533125 187.1696875 -9.863125 204.6596875 -10.203125 222.6796875 C-16.473125 222.6796875 -22.743125 222.6796875 -29.203125 222.6796875 C-29.203125 205.1896875 -29.203125 187.6996875 -29.203125 169.6796875 C-31.183125 169.3496875 -33.163125 169.0196875 -35.203125 168.6796875 C-43.9869871 165.67244651 -51.10501977 159.22223332 -55.765625 151.3046875 C-59.64931597 142.75622805 -59.96673036 132.48668076 -57.2421875 123.515625 C-56.07092748 121.04628063 -54.78878018 118.9013715 -53.203125 116.6796875 C-52.501875 115.6278125 -51.800625 114.5759375 -51.078125 113.4921875 C-45.47832478 107.27215624 -38.0737125 103.92842679 -30.203125 101.6796875 C-30.203125 89.1396875 -30.203125 76.5996875 -30.203125 63.6796875 C-33.173125 62.6896875 -36.143125 61.6996875 -39.203125 60.6796875 C-49.22894956 54.88586929 -54.81518435 48.39166765 -58.4765625 37.51171875 C-60.6935684 28.87016349 -59.14486543 21.11411765 -54.94921875 13.36328125 C-43.14470986 -5.6461595 -19.32720846 -11.58261783 0 0 Z " fill="#FEFEFE" transform="translate(214.203125,57.3203125)"/>
<path d="M0 0 C5.61 0 11.22 0 17 0 C17 17.49 17 34.98 17 53 C19.97 53.495 19.97 53.495 23 54 C33.42638345 57.68689605 40.12102325 65.34334013 45 75 C47.6706228 83.01186839 47.08080578 94.06953016 43.46484375 101.6875 C36.48905491 112.69994531 27.59475499 118.99321318 15 122 C4.44051565 123.38032475 -6.33703649 121.09455671 -14.9375 114.6875 C-16.32103047 113.49148098 -17.67771374 112.26339902 -19 111 C-19.57492188 110.4534375 -20.14984375 109.906875 -20.7421875 109.34375 C-26.68007256 103.08090605 -29.20744246 96.00964404 -29.4375 87.4375 C-29.06031351 77.05878791 -25.52287401 68.19089797 -17.85546875 60.984375 C-12.35074954 56.52058225 -7.27643526 53 0 53 C0 35.51 0 18.02 0 0 Z " fill="#FDFDFE" transform="translate(81,0)"/>
<path d="M0 0 C17.49 0 34.98 0 53 0 C54.32 3.63 55.64 7.26 57 11 C62.23842328 21.08881521 70.63090872 24.22942135 81 28 C81 45.49 81 62.98 81 81 C60.06950431 81 43.94041214 77.3456635 27.98828125 63.69921875 C25.90587227 61.85138761 25.90587227 61.85138761 23 60 C23 59.34 23 58.68 23 58 C22.34 58 21.68 58 21 58 C5.6379671 41.09333856 0 22.97261297 0 0 Z " fill="#397BE7" transform="translate(0,199)"/>
</svg>
